<mxfile host="app.diagrams.net" modified="2023-11-14T21:44:20.583Z" agent="Mozilla/5.0 (Macintosh; Intel Mac OS X 10_15_7) AppleWebKit/537.36 (KHTML, like Gecko) Chrome/116.0.5845.2325 YaBrowser/23.9.0.2325 Yowser/2.5 Safari/537.36" etag="RJdZIoaOM5ZcuWDavwYN" version="21.1.7" type="device">
  <diagram id="R2lEEEUBdFMjLlhIrx00" name="Page-1">
    <mxGraphModel dx="1386" dy="676" grid="1" gridSize="10" guides="1" tooltips="1" connect="1" arrows="1" fold="1" page="1" pageScale="1" pageWidth="850" pageHeight="1100" math="0" shadow="0" extFonts="Permanent Marker^https://fonts.googleapis.com/css?family=Permanent+Marker">
      <root>
        <mxCell id="0" />
        <mxCell id="1" parent="0" />
        <mxCell id="zK564wWoq6AAKpFuLyo1-3" value="" style="edgeStyle=orthogonalEdgeStyle;rounded=0;orthogonalLoop=1;jettySize=auto;html=1;exitX=0.25;exitY=1;exitDx=0;exitDy=0;" edge="1" parent="1" source="zK564wWoq6AAKpFuLyo1-1" target="zK564wWoq6AAKpFuLyo1-2">
          <mxGeometry relative="1" as="geometry" />
        </mxCell>
        <mxCell id="zK564wWoq6AAKpFuLyo1-4" style="edgeStyle=orthogonalEdgeStyle;rounded=0;orthogonalLoop=1;jettySize=auto;html=1;exitX=0.75;exitY=1;exitDx=0;exitDy=0;" edge="1" parent="1" source="zK564wWoq6AAKpFuLyo1-1" target="zK564wWoq6AAKpFuLyo1-5">
          <mxGeometry relative="1" as="geometry">
            <mxPoint x="480" y="210" as="targetPoint" />
          </mxGeometry>
        </mxCell>
        <mxCell id="zK564wWoq6AAKpFuLyo1-15" style="edgeStyle=orthogonalEdgeStyle;rounded=0;orthogonalLoop=1;jettySize=auto;html=1;exitX=0;exitY=0.5;exitDx=0;exitDy=0;entryX=0.5;entryY=0;entryDx=0;entryDy=0;" edge="1" parent="1" source="zK564wWoq6AAKpFuLyo1-1" target="zK564wWoq6AAKpFuLyo1-21">
          <mxGeometry relative="1" as="geometry">
            <mxPoint x="90" y="240" as="targetPoint" />
          </mxGeometry>
        </mxCell>
        <mxCell id="zK564wWoq6AAKpFuLyo1-1" value="Frontend&lt;br&gt;* NGINX&lt;br&gt;*Prometheus&lt;br&gt;*Node Exporter" style="rounded=0;whiteSpace=wrap;html=1;" vertex="1" parent="1">
          <mxGeometry x="365" y="80" width="120" height="60" as="geometry" />
        </mxCell>
        <mxCell id="zK564wWoq6AAKpFuLyo1-7" style="edgeStyle=orthogonalEdgeStyle;rounded=0;orthogonalLoop=1;jettySize=auto;html=1;exitX=1;exitY=1;exitDx=0;exitDy=0;entryX=0.5;entryY=0;entryDx=0;entryDy=0;" edge="1" parent="1" source="zK564wWoq6AAKpFuLyo1-2" target="zK564wWoq6AAKpFuLyo1-6">
          <mxGeometry relative="1" as="geometry">
            <Array as="points">
              <mxPoint x="365" y="295" />
              <mxPoint x="430" y="295" />
              <mxPoint x="430" y="320" />
            </Array>
          </mxGeometry>
        </mxCell>
        <mxCell id="zK564wWoq6AAKpFuLyo1-16" style="edgeStyle=orthogonalEdgeStyle;rounded=0;orthogonalLoop=1;jettySize=auto;html=1;exitX=0;exitY=0.5;exitDx=0;exitDy=0;entryX=0.75;entryY=0;entryDx=0;entryDy=0;" edge="1" parent="1" source="zK564wWoq6AAKpFuLyo1-2" target="zK564wWoq6AAKpFuLyo1-21">
          <mxGeometry relative="1" as="geometry">
            <mxPoint x="90" y="240" as="targetPoint" />
            <Array as="points">
              <mxPoint x="100" y="240" />
              <mxPoint x="100" y="300" />
            </Array>
          </mxGeometry>
        </mxCell>
        <mxCell id="zK564wWoq6AAKpFuLyo1-2" value="Backend - 1&lt;br&gt;*Apache + php&lt;br&gt;*Prometheus + node exporter" style="whiteSpace=wrap;html=1;rounded=0;" vertex="1" parent="1">
          <mxGeometry x="245" y="210" width="120" height="60" as="geometry" />
        </mxCell>
        <mxCell id="zK564wWoq6AAKpFuLyo1-8" style="edgeStyle=orthogonalEdgeStyle;rounded=0;orthogonalLoop=1;jettySize=auto;html=1;exitX=0;exitY=1;exitDx=0;exitDy=0;" edge="1" parent="1" source="zK564wWoq6AAKpFuLyo1-5">
          <mxGeometry relative="1" as="geometry">
            <mxPoint x="430" y="320" as="targetPoint" />
          </mxGeometry>
        </mxCell>
        <mxCell id="zK564wWoq6AAKpFuLyo1-17" style="edgeStyle=orthogonalEdgeStyle;rounded=0;orthogonalLoop=1;jettySize=auto;html=1;exitX=1;exitY=0.5;exitDx=0;exitDy=0;entryX=0.75;entryY=0;entryDx=0;entryDy=0;" edge="1" parent="1" source="zK564wWoq6AAKpFuLyo1-5" target="zK564wWoq6AAKpFuLyo1-21">
          <mxGeometry relative="1" as="geometry">
            <mxPoint x="90" y="240" as="targetPoint" />
            <Array as="points">
              <mxPoint x="625" y="240" />
              <mxPoint x="625" y="540" />
              <mxPoint x="190" y="540" />
              <mxPoint x="190" y="240" />
              <mxPoint x="100" y="240" />
              <mxPoint x="100" y="310" />
            </Array>
          </mxGeometry>
        </mxCell>
        <mxCell id="zK564wWoq6AAKpFuLyo1-5" value="Backend - 2&lt;br style=&quot;border-color: var(--border-color);&quot;&gt;*Apache + php&lt;br style=&quot;border-color: var(--border-color);&quot;&gt;*Prometheus + node exporter" style="rounded=0;whiteSpace=wrap;html=1;" vertex="1" parent="1">
          <mxGeometry x="485" y="210" width="120" height="60" as="geometry" />
        </mxCell>
        <mxCell id="zK564wWoq6AAKpFuLyo1-12" style="edgeStyle=orthogonalEdgeStyle;rounded=0;orthogonalLoop=1;jettySize=auto;html=1;exitX=0.5;exitY=1;exitDx=0;exitDy=0;entryX=0.5;entryY=0;entryDx=0;entryDy=0;" edge="1" parent="1" source="zK564wWoq6AAKpFuLyo1-6" target="zK564wWoq6AAKpFuLyo1-9">
          <mxGeometry relative="1" as="geometry" />
        </mxCell>
        <mxCell id="zK564wWoq6AAKpFuLyo1-18" style="edgeStyle=orthogonalEdgeStyle;rounded=0;orthogonalLoop=1;jettySize=auto;html=1;exitX=0;exitY=0.5;exitDx=0;exitDy=0;entryX=0.75;entryY=0;entryDx=0;entryDy=0;" edge="1" parent="1" source="zK564wWoq6AAKpFuLyo1-6" target="zK564wWoq6AAKpFuLyo1-21">
          <mxGeometry relative="1" as="geometry">
            <mxPoint x="90" y="240" as="targetPoint" />
            <Array as="points">
              <mxPoint x="190" y="350" />
              <mxPoint x="190" y="240" />
              <mxPoint x="100" y="240" />
              <mxPoint x="100" y="300" />
            </Array>
          </mxGeometry>
        </mxCell>
        <mxCell id="zK564wWoq6AAKpFuLyo1-6" value="Master DataBase&lt;br&gt;*MySQL&lt;br&gt;*Prometheus + node exporter" style="rounded=0;whiteSpace=wrap;html=1;" vertex="1" parent="1">
          <mxGeometry x="365" y="320" width="120" height="60" as="geometry" />
        </mxCell>
        <mxCell id="zK564wWoq6AAKpFuLyo1-13" style="edgeStyle=orthogonalEdgeStyle;rounded=0;orthogonalLoop=1;jettySize=auto;html=1;exitX=0.5;exitY=0;exitDx=0;exitDy=0;entryX=0.5;entryY=1;entryDx=0;entryDy=0;" edge="1" parent="1" source="zK564wWoq6AAKpFuLyo1-9" target="zK564wWoq6AAKpFuLyo1-6">
          <mxGeometry relative="1" as="geometry" />
        </mxCell>
        <mxCell id="zK564wWoq6AAKpFuLyo1-19" style="edgeStyle=orthogonalEdgeStyle;rounded=0;orthogonalLoop=1;jettySize=auto;html=1;exitX=0;exitY=0.5;exitDx=0;exitDy=0;entryX=1;entryY=0.5;entryDx=0;entryDy=0;" edge="1" parent="1" source="zK564wWoq6AAKpFuLyo1-9" target="zK564wWoq6AAKpFuLyo1-21">
          <mxGeometry relative="1" as="geometry">
            <mxPoint x="90" y="240" as="targetPoint" />
            <Array as="points">
              <mxPoint x="190" y="480" />
              <mxPoint x="190" y="290" />
            </Array>
          </mxGeometry>
        </mxCell>
        <mxCell id="zK564wWoq6AAKpFuLyo1-9" value="Slave DataBase&lt;br&gt;*MySQL&lt;br style=&quot;border-color: var(--border-color);&quot;&gt;*Prometheus + node exporter" style="whiteSpace=wrap;html=1;rounded=0;" vertex="1" parent="1">
          <mxGeometry x="365" y="450" width="120" height="60" as="geometry" />
        </mxCell>
        <mxCell id="zK564wWoq6AAKpFuLyo1-21" value="Watcher&lt;br&gt;*Grafana" style="rounded=0;whiteSpace=wrap;html=1;" vertex="1" parent="1">
          <mxGeometry x="40" y="260" width="120" height="60" as="geometry" />
        </mxCell>
      </root>
    </mxGraphModel>
  </diagram>
</mxfile>
